PathFileType	4	(X/Y/Z)	D:\TRACE\v60_Jaco2_6-2-23\v60_baseline_1-platform.trc
DataRate	CameraRate	NumFrames	NumMarkers	Units	OrigDataRate	OrigDataStartFrame	OrigNumFrames
100.00	100.00	      31	5	mm	100.00	782	      6251
Frame#	Time	Left_Front			Right_Front			Left_Aft			Right_Aft			Post			
		X1	Y1	Z1	X2	Y2	Z2	X3	Y3	Z3	X4	Y4	Z4	X5	Y5	Z5	

782	7.810	-800.64911	8.83318	-638.76331	769.37567	10.24645	-644.41858	-708.68365	7.90574	496.16016	733.55719	6.90657	505.75647	-14.09179	1308.38306	-961.96155	
783	7.820	-800.55042	8.76232	-638.81403	769.38922	10.15527	-644.44141	-708.66357	7.91207	496.13269	733.55994	6.88386	505.76181	-14.08785	1308.33655	-961.94800	
784	7.830	-800.55438	8.77452	-638.85712	769.34363	10.11045	-644.42426	-708.62549	7.88621	496.15216	733.57483	6.89748	505.76849	-14.04668	1308.24219	-961.79956	
785	7.840	-800.59412	8.81760	-638.79718	769.41602	10.15983	-644.39246	-708.68439	7.99833	496.14661	733.56445	6.95625	505.73914	-14.14601	1308.23804	-961.72992	
786	7.850	-800.65045	8.85188	-638.75800	769.37836	10.17787	-644.42657	-708.72119	8.03887	496.12378	733.52942	6.93331	505.72833	-14.18508	1308.22534	-961.65765	
787	7.860	-800.67419	8.84223	-638.70667	769.38043	10.26327	-644.41602	-708.72687	7.97471	496.10358	733.47546	6.91384	505.75308	-14.14079	1308.20728	-961.60223	
788	7.870	-800.63702	8.75982	-638.85889	769.39551	10.19358	-644.41876	-708.68536	7.94421	496.12994	733.51025	6.92842	505.74557	-14.12159	1308.16528	-961.54895	
789	7.880	-800.52826	8.85961	-638.85193	769.36206	10.14565	-644.43445	-708.64514	7.96492	496.08008	733.56232	6.96128	505.71707	-14.15999	1308.17236	-961.63464	
790	7.890	-800.52332	9.10241	-638.79468	769.34161	10.23985	-644.42499	-708.68658	7.99680	496.06686	733.24200	7.06861	505.87637	-14.18982	1308.19702	-961.72107	
791	7.900	-800.60437	9.02196	-638.74298	769.36517	10.23267	-644.44958	-708.73163	8.01279	496.08279	732.65356	6.25978	505.80743	-14.15700	1308.29578	-961.92828	
792	7.910	-800.64886	8.92701	-638.64105	769.45996	10.08710	-644.35498	-708.71741	7.86868	496.12146	732.91846	6.47818	505.96396	-14.17690	1308.37390	-962.08258	
793	7.920	-800.61951	8.83427	-638.73511	769.39801	9.97586	-644.33630	-708.70251	7.79910	496.13654	733.03894	6.57969	505.85379	-14.25964	1308.35071	-961.92206	
794	7.930	-800.61841	8.67253	-638.88660	769.40515	10.13140	-644.37250	-708.70532	7.87922	496.04834	733.04791	6.57697	505.83475	-14.11339	1308.26587	-961.76288	
795	7.940	-800.53998	8.87312	-638.83014	769.39514	10.13529	-644.40497	-708.65344	7.72344	496.08029	733.06775	6.61972	505.82153	-14.07666	1308.14722	-961.64423	
796	7.950	-800.52557	9.07377	-638.73975	769.37579	10.00798	-644.34064	-708.68274	7.94133	496.08670	733.03644	6.60271	505.77643	-14.33472	1308.15015	-961.44806	
797	7.960	-800.60638	9.03718	-638.65051	769.43524	10.08087	-644.34918	-708.69586	8.03405	496.07550	733.05078	6.56609	505.75534	-14.28401	1308.18103	-961.47461	
798	7.970	-800.63019	8.88377	-638.70673	769.38837	10.12330	-644.39722	-708.55762	7.72272	496.14972	733.04449	6.60818	505.86801	-14.24371	1308.20618	-961.51422	
799	7.980	-800.60315	8.76395	-638.89050	769.45148	10.09950	-644.33435	-708.63300	7.61914	496.10226	732.92731	6.56117	505.96854	-14.17523	1308.22046	-961.65442	
800	7.990	-800.52771	8.83695	-638.89813	769.37817	9.99462	-644.34637	-708.55829	7.50657	496.06964	732.67419	6.29700	505.81339	-14.28049	1308.18811	-961.81421	
801	8.000	-800.53564	8.98093	-638.81091	769.38971	10.02506	-644.36224	-708.52966	7.56744	496.12216	732.60376	6.24163	505.80887	-14.13814	1308.20520	-961.96765	
802	8.010	-800.59491	9.05538	-638.66016	769.35626	10.13050	-644.37506	-708.16125	7.27659	497.01453	732.19592	6.30794	506.13873	-14.10734	1308.27856	-962.09802	
803	8.020	-800.58008	8.97618	-638.69202	769.43024	10.14040	-644.39551	-708.59839	7.91003	496.49564	732.82562	6.34366	505.69519	-14.17090	1308.38330	-962.06262	
804	8.030	-800.64093	8.92956	-638.71521	769.43475	10.12847	-644.38684	-708.72156	7.94078	496.52478	732.70605	6.25599	505.75339	-14.20173	1308.33289	-961.94690	
805	8.040	-800.58185	8.89223	-638.79065	769.41772	10.09609	-644.37347	-708.61420	7.74740	496.60938	732.67877	6.24628	505.72482	-14.17436	1308.20801	-961.72681	
806	8.050	-800.50720	8.81216	-638.87726	769.35217	9.98655	-644.37805	-708.61554	7.77543	496.41888	732.58026	6.23965	505.84723	-14.20325	1308.15930	-961.56317	
807	8.060	-800.51001	8.84023	-638.83893	769.37122	10.02730	-644.38159	-708.56494	7.72756	496.10529	732.67853	6.30312	505.90564	-14.30197	1308.12341	-961.37604	
808	8.070	-800.60474	8.96020	-638.72974	769.43616	10.08358	-644.37433	-708.57336	7.90342	496.49594	732.73206	6.32057	505.80884	-14.23717	1308.22278	-961.45966	
809	8.080	-800.61200	9.03697	-638.70551	769.38849	10.16567	-644.41315	-708.58466	7.82549	496.76068	732.94580	6.59149	506.00952	-14.23627	1308.32959	-961.63995	
810	8.090	-800.60767	8.93453	-638.76245	769.43878	10.12267	-644.35364	-708.32617	7.37093	497.23529	732.47876	6.59543	506.21347	-14.26105	1308.32422	-961.72412	
811	8.100	-800.51593	8.83841	-638.87830	769.42694	10.05624	-644.37878	-708.56628	7.53087	496.06308	732.89233	6.52104	506.00104	-14.22052	1308.25354	-961.80951	
812	8.110	-800.52118	8.78981	-638.85663	769.37457	10.01032	-644.37109	-708.51837	7.55259	496.08783	732.95068	6.54285	505.99829	-14.12894	1308.27527	-961.89465	
